<svg width="1000" height="1000" viewBox="0 0 1000 1000" fill="none" xmlns="http://www.w3.org/2000/svg">
    <path d="M372.754 82.002C377.433 79.076 381.865 75.925 387.225 73.971C396.46 70.604 403.568 74.268 410.402 79.491C412.979 81.46 415.116 84.048 417.28 86.506C419.484 89.009 421.725 91.619 416.331 93.297C413.216 94.266 414.043 95.872 416.201 97.214C416.798 97.585 417.81 97.473 418.213 97.941C420.604 100.723 426.862 101.466 426.145 104.643C425.097 109.293 418.678 109.726 414.805 112.356C412.746 113.754 411.002 111.241 409.904 109.217C409.29 108.086 408.971 106.016 406.955 107.427C405.96 108.123 405.966 109.201 406.445 110.591C409.135 118.399 406.582 116.135 400.785 122.384C392.236 131.599 385.869 123.013 384.461 120.341C380.661 113.133 375.866 112.269 369.075 112.498C365.929 112.604 366.843 110.192 368.234 108.447C369.885 106.376 373.084 104.955 374.578 105.568C380.91 108.164 384.945 103.532 389.793 101.624C392.133 100.703 395.769 100.152 395.406 96.889C395.124 94.357 393.314 90.3 391.629 89.996C388.677 89.464 384.817 87.505 381.991 90.483C375.16 97.682 368.26 104.498 356.977 101.858C356.622 101.775 356.123 102.246 355.707 102.487C343.991 109.292 330.645 111.771 318.168 116.56C312.429 118.763 307.574 122.362 302.247 125.143C297.313 127.718 299.019 133.378 295.549 136.376C294.893 136.943 296.179 137.876 296.93 138.498C299.526 140.653 301.434 143.008 302.245 146.656C302.782 149.072 305.002 151.473 308.488 151.924C313.522 152.575 316.547 154.356 311.195 159.345C309.134 161.266 307.615 163.95 306.398 166.545C305.123 169.264 304.859 172.855 307.597 174.435C310.218 175.947 312.654 173.269 314.09 171.138C315.828 168.558 317.485 165.652 318.121 162.662C319.168 157.739 322.314 156.352 326.646 155.338C332.081 154.066 339.437 152.318 339.92 146.704C340.657 138.133 346.438 134.229 350.682 128.371C358.218 117.969 361.525 115.972 373.269 119.828C376.88 121.014 375.91 125.417 378.918 126.877C383.69 129.194 380.591 132.031 379.286 134.635C378.375 136.452 378.252 137.672 379.616 139.644C381.349 142.15 382.696 140.834 384.508 140.428C388.311 139.576 390.733 136.962 393.31 134.366C396.32 131.335 399.2 131.321 399.596 136.189C400.096 142.34 405.017 147.823 401.629 154.741C400.571 156.902 404.653 159.915 406.825 160.289C413.655 161.463 415.111 168.46 420.204 171.463C422.824 173.008 421.196 177.838 420.294 178.748C417.298 181.773 418.251 185.95 416.067 189.198C414.601 191.378 414.124 195.897 419.671 195.64C423.031 195.484 425.11 195.332 427.102 199.923C429.516 205.484 425.011 206.031 423.396 207.665C420.623 210.472 416.553 212.047 412.909 213.908C411.984 214.38 409.645 214.202 409.587 213.949C407.715 205.787 400.968 210.127 396.503 208.805C394.824 208.308 392.381 209.713 391.673 206.976C391.153 204.966 392.968 204.233 394.085 202.976C398.984 197.464 403.63 191.727 409.124 185.169C406.894 185.739 405.527 185.709 404.687 186.361C394.091 194.583 382.175 191.506 370.503 190.475C366.263 190.101 361.992 189.449 357.582 193.693C360.168 193.829 361.525 193.986 362.877 193.955C365.933 193.885 369.291 194.235 370.41 197.207C371.51 200.129 367.97 201.161 366.518 203.079C364.425 205.844 360.306 209.289 364.239 213.535C367.63 217.196 371.659 219.068 376.406 215.608C377.773 214.612 379.083 213.536 380.414 212.49C381.988 211.253 383.481 208.467 385.663 210.982C387.302 212.871 385.905 215.538 384.511 216.925C380.034 221.381 375.084 225.195 368.511 226.318C364.541 226.996 360.551 227.606 357.016 230.075C354.275 231.99 351.274 235.636 347.502 232.149C343.912 228.83 348.813 226.439 349.499 223.179C342.045 225.58 335.037 227.682 328.144 230.11C323.196 231.852 320.013 235.265 320.344 240.896C320.492 243.413 320.387 244.782 317.109 245.042C312.723 245.389 308.451 247.847 304.517 248.758C295.096 250.938 291.608 258.533 285.925 264.192C284.893 265.22 283.977 267.087 282.87 267.198C275.891 267.897 276.095 273.186 275.478 278.049C274.605 284.923 269.957 288.191 264.04 290.724C254.127 294.967 245.087 300.942 236.494 307.294C230.425 311.78 228.682 319.266 228.525 326.789C228.408 332.361 228.306 337.935 228.357 343.507C228.399 348.096 226.524 351.984 224.189 355.693C222.824 357.861 221.833 360.761 218.331 360.228C214.968 359.716 215.618 356.757 214.915 354.591C212.422 346.909 211.461 339.361 214.422 331.409C216.619 325.509 213.72 322.186 207.445 322.217C206.46 322.222 205.262 322.294 205.039 321.172C203.321 312.533 195.485 316.693 190.766 314.364C187.343 312.674 188.149 316.8 186.722 317.941C185.116 319.224 187.234 323.912 184.257 322.579C181.028 321.133 177.004 323.096 174.396 319.471C171.876 315.968 167.386 313.627 163.726 315.483C154.803 320.009 144.876 323.043 141.739 335.305C139.233 345.101 133.163 353.901 129.729 363.661C126.262 373.513 128.078 383.35 128.897 393.137C129.126 395.869 132.155 400.358 134.991 400.035C140.788 399.375 147.93 401.199 151.808 394.476C152.762 392.822 153.386 390.964 154.042 389.156C156.756 381.674 169.109 377.09 176.009 381.132C178.702 382.71 178.398 385.628 177.113 387.486C169.011 399.2 164.68 412.681 158.878 425.515C163.255 426.332 167.457 427.471 172.181 427.412C180.789 427.304 189.899 434.903 184.961 447.669C180.36 459.562 174.815 472.436 185.581 485.112C188.934 489.06 191.077 490.128 195.468 488.381C205.446 484.413 208.569 485.24 215.115 493.16C218.027 496.684 224.988 494.315 226.158 487.802C228.053 477.255 234.996 476.166 243.275 475.528C247.252 475.222 250.211 472.521 253.244 470.051C255.456 468.25 258.421 466.256 260.901 469.449C263.509 472.805 260.96 474.661 258.1 476.086C257.027 476.62 255.74 477.149 256.339 478.709C256.927 480.242 258.403 479.986 259.41 479.527C262.127 478.288 266.146 478.94 266.062 473.703C266.024 471.316 269.093 469.412 270.774 473.128C273.247 478.594 281.762 478.308 282.32 485.562C282.341 485.835 285.445 486.065 287.095 485.981C291.53 485.755 295.588 485.856 299.107 489.493C303.633 494.17 308.121 488.874 312.566 488.366C317.41 487.812 321.973 484.397 323.976 492.207C324.348 493.658 327.472 494.505 329.422 495.427C332.898 497.07 336.831 498.122 336.622 503.232C336.532 505.436 338.55 505.478 340.071 506.219C346.2 509.206 351.732 512.609 354.335 519.746C356.412 525.44 367.702 530.747 374.193 530.129C390.117 528.614 401.296 537.478 411.824 547.532C413.025 548.679 413.08 551.085 413.538 552.938C414.843 558.22 415.231 563.617 421.021 566.925C424.706 569.03 423.31 573.095 420.597 575.583C418.76 577.268 417.15 578.835 416.426 581.136C421.166 583.703 426.756 580.802 431.076 582.995C439.903 587.476 449.996 587.801 458.761 592.436C463.046 594.702 467.645 596.006 468.85 601.493C469.024 602.285 469.276 604.085 470.379 603.141C476.205 598.152 481.37 603.899 486.867 603.955C501.185 604.1 514.325 607.365 524.559 618.618C527.43 621.775 531.829 623.146 536.583 622.624C541.302 622.106 543.535 624.512 545.408 629.18C551.945 645.468 545.548 657.54 533.663 667.734C529.868 670.989 526.911 674.476 524.328 678.633C522.218 682.029 519.994 685.191 516.249 687.619C511.505 690.694 512.976 696.757 513.081 701.627C513.268 710.285 509.974 718.107 508.393 726.21C506.428 736.28 499.516 742.83 495.979 751.527C493.065 758.693 484.526 760.245 476.365 760.877C463.329 761.886 451.712 767.262 441.876 776.027C438.719 778.841 439.667 782.745 440.078 786.307C440.694 791.638 440.477 796.41 434.734 799.138C432.135 800.372 431.805 803.411 430.397 805.595C429.159 807.516 428.969 812.165 423.987 808.682C422.523 807.659 419.113 812.167 418.069 815.019C411.919 831.824 405.099 835.63 387.384 831.658C388.072 834.44 387.407 837.222 391.261 839.111C395.18 841.031 391.032 849.6 385.046 851.438C379.673 853.088 374.063 853.41 368.46 853.303C366.142 853.259 363.335 853.317 364.212 856.341C367.081 866.234 359.98 862.909 355.606 863.086C354.292 863.139 352.951 862.531 350.644 862.001C353.879 866.169 356.89 868.892 356.128 874.376C355.576 878.35 355.72 880.513 351.248 880.97C348.18 881.283 348.319 882.977 350.531 884.68C350.906 884.969 351.497 885.004 351.823 885.325C354.614 888.07 361.374 885.534 361.285 891.31C361.234 894.631 357.316 897.338 356.617 901.128C356.533 901.584 354.644 902.314 355.835 902.952C362.918 906.741 356.471 908.869 355.073 911.852C353.877 914.404 352.4 914.355 350.476 913.394C342.932 909.624 335.593 905.591 328.883 900.339C324.004 896.52 318.104 893.923 317.18 886.764C317.03 885.605 316.45 884.414 315.038 884.094C308.967 882.718 308.149 880.48 313.3 876.305C315.242 874.731 309.14 861.404 306.172 860.98C301.458 860.306 298.962 857.2 298.726 853.296C298.44 848.569 296.756 844.605 293.611 841.797C288.292 837.048 291.927 831.722 292 826.831C292.128 818.272 291.505 810.169 287.282 802.466C284.405 797.218 284.091 791.043 283.731 785.295C283.174 776.387 283.202 767.414 280.571 758.85C277.873 750.071 278.911 740.951 277.264 731.99C274.673 717.891 266.372 709.655 255.281 702.749C249.937 699.421 244.287 696.475 239.368 692.604C233.752 688.184 228.176 683.725 226.983 675.487C226.408 671.522 222.872 667.933 220.496 664.292C212.289 651.72 207.339 637.44 199.636 624.596C198.383 622.506 197.525 619.866 195.509 618.745C188.204 614.686 189.156 607.021 187.428 600.69C186.247 596.364 190.226 593.797 193.113 591.263C194.794 589.788 196.038 589.022 193.219 587.154C186.935 582.99 188.532 576.723 189.995 570.971C190.978 567.108 194.066 563.841 193.449 559.448C193.416 559.214 193.41 558.802 193.524 558.747C199.634 555.805 200.76 547.2 205.152 545.012C213.971 540.619 211.173 533.574 212.051 527.565C213.155 520.01 213.322 512.192 208.616 505.262C207.608 503.778 206.983 501.912 207.518 499.771C208.489 495.879 205.639 493.153 202.783 493.646C201.033 493.948 195.86 496.099 198.422 500.855C199.643 503.122 199.144 504.444 196.556 505.015C194.413 505.488 192.313 507.753 190.413 504.333C187.88 499.772 185.032 495.752 178.932 494.995C177.041 494.76 173.595 493.006 174.493 488.76C175.393 484.508 171.204 483.326 168.424 481.689C164.959 479.649 163.977 477.246 163.765 472.949C163.293 463.384 160.333 454.694 151.469 448.738C143.239 443.209 134.389 438.008 131.955 426.813C130.872 421.835 128.401 416.925 121.279 421.15C117.834 423.193 115.172 419.815 113.31 417.578C104.754 407.315 96.1731 397 92.8771 383.552C91.9321 379.695 91.3631 375.593 93.1641 372.119C99.7411 359.437 98.5491 345.806 97.6611 332.502C97.1651 325.069 103.158 318.891 99.2501 311.73C98.3691 320.991 92.8761 329.634 93.6401 339.805C93.7991 341.923 93.2011 344.151 92.6601 346.253C92.2081 348.006 90.8841 349.365 88.9551 348.897C87.1841 348.468 87.7511 346.734 87.5311 345.309C85.6121 332.855 89.2871 320.359 92.2871 309.263C95.9041 295.884 99.5371 281.538 107.059 269.248C111.5 261.991 110.419 253.4 114.391 245.862C125.774 224.253 139.533 204.628 157.202 187.699C167.666 177.673 177.406 166.962 186.874 155.943C203.453 136.65 223.876 121.758 244.791 107.489C266.941 92.378 290.856 80.786 315.56 70.627C321.255 68.285 325.345 68.325 329.441 74.275C331.988 77.975 336.76 74.475 338.584 71.773C344.954 62.338 355.615 64.257 364.35 61.178C365.103 60.912 366.494 61.394 366.506 62.589C366.531 64.985 364.608 66.279 362.22 68.478C364.543 68.478 366.036 68.318 367.481 68.515C369.732 68.821 370.936 70.865 368.592 71.587C359.658 74.34 352.949 80.572 345.414 86.292C348.597 91.7 353.448 88.263 355.185 85.37C357.923 80.808 362.206 79.772 366.085 77.617C371.215 74.766 373.475 76.463 372.921 82.198C370.006 80.791 369.448 84.001 367.74 84.931C366.717 85.488 364.605 85.6 366.413 88.345C368.108 90.918 369.205 90.001 370.961 89.359C375.258 87.788 371.73 84.348 372.754 82.002ZM246.387 197.442C251.196 196.625 255.576 195.56 259.102 200.607C259.936 201.801 265.279 202.496 268.049 199.935C271.541 196.707 267.717 193.471 266.879 190.989C265.956 188.258 261.499 189.681 259.256 191.244C255.325 193.982 249.999 193.509 246.387 197.442ZM266.971 222.767C271.522 220.18 272.664 212.116 280.063 216.341C281.895 212 279.462 209.895 275.819 209.046C273.477 208.5 268.499 206.816 268.914 208.89C269.941 214.017 264.333 217.67 266.971 222.767Z" fill="#60B0F0"/>
    <path d="M708.284 225.279C705.314 211.082 696.356 202.01 684.255 199.75C683.778 199.661 683.288 199.644 682.81 199.564C679.425 198.997 676.189 196.736 676.412 193.86C676.637 190.962 680.671 190.666 683.575 190.555C684.471 190.521 685.38 190.855 686.562 191.072C683.438 185.166 683.447 184.926 688.944 185.134C691.381 185.226 691.575 183.457 692.649 182.352C694.034 180.927 693.114 179.69 692.216 178.553C690.654 176.576 689.849 179.13 688.656 179.203C682.631 179.573 677.11 181.839 672.025 184.649C667.127 187.357 666.758 185.433 667.183 181.34C667.432 178.942 668.26 177.361 664.191 176.282C659.656 175.08 659.797 168.514 660.727 165.262C662.084 160.514 658.174 161.569 656.969 159.888C655.697 158.113 653.779 158.44 652.648 159.868C650.864 162.121 652.78 163.75 654.098 165.508C655.93 167.953 658.875 170.99 655.872 173.709C651.929 177.278 646.675 182.626 641.508 177.797C637.501 174.052 633.976 167.435 634.155 162.23C634.333 157.068 639.88 152.855 647.02 154.492C642.058 151.686 638.55 147.812 635.83 143.328C634.659 141.398 633.511 138.524 636.498 137.051C638.698 135.966 641.855 134.161 643.401 137.718C644.479 140.198 645.965 140.111 647.921 139.982C649.717 139.863 651.295 140.267 652.273 141.977C659.27 154.21 672.128 158.253 683.579 164.191C686.21 165.556 687.962 167.082 688.262 170.045C688.582 173.208 690.666 175.061 693.452 174.328C696.649 173.487 696.658 170.976 695.041 168.124C693.477 165.366 692.518 161.224 695.321 159.659C701.991 155.934 698.183 154.003 694.824 151.301C689.469 146.994 681.252 144.25 685.258 134.387C685.498 133.797 682.249 131.789 680.533 130.367C678.087 137.283 673.816 138.655 667.643 134.237C662.038 130.226 656.738 125.772 651.472 121.315C649.776 119.88 647.323 118.471 648.832 115.323C651.214 110.354 648.509 105.685 645.715 102.711C641.07 97.766 637.599 91.637 632.191 87.627C627.707 84.303 628.497 80.055 629.986 76.872C631.44 73.763 635.4 74.514 639.047 75.372C644.869 76.742 650.994 76.85 657 77.393C657.676 77.454 658.989 77.922 658.848 76.18C658.213 68.322 663.105 72.257 665.733 73.346C709.308 91.388 749.476 115.267 784.899 146.385C823.882 180.631 858.116 219.125 884.456 264.214C907.681 303.971 925.564 345.942 935.645 390.881C943.915 427.744 950.535 464.986 948.369 503.068C947.462 519.017 945.72 534.928 944.053 550.824C940.946 580.456 936.913 610.009 926.573 638.107C913.055 674.838 897.46 710.63 876.339 743.846C867.672 757.476 857.714 769.735 845.151 779.748C839.145 784.535 832.449 788.478 825.943 792.609C822.968 794.498 821.196 793.088 821.479 789.806C821.661 787.694 822.2 785.261 823.451 783.65C831.028 773.896 833.007 762.49 834.728 750.66C835.825 743.119 838.442 735.53 841.791 728.651C846.721 718.522 846.897 707.878 846.034 697.402C845.328 688.826 846.468 680.65 849.694 673.341C853.948 663.703 855.919 652.967 862.71 644.459C863.748 643.159 864.935 641.564 865.07 640.019C866.872 619.363 869.949 598.558 860.503 578.772C858.956 575.531 856.686 572.62 854.623 569.644C849.226 561.859 853.81 553.856 854.144 545.983C854.375 540.543 855.706 535.159 856.149 529.717C856.965 519.679 851.692 515.539 842.758 519.475C837.44 521.818 834.77 520.488 832.741 515.281C828.777 505.109 818.745 503.918 810.247 511.648C804.834 516.572 798.429 520.423 792.347 524.577C791.581 525.1 790.032 524.714 788.917 524.45C779.371 522.189 770.717 524.38 762.522 529.406C754.907 534.077 749.778 533.856 742.843 527.668C736.146 521.694 728.919 516.66 721.145 512.233C718.048 510.469 714.951 507.681 714.093 504.243C710.714 490.702 699.266 484.614 689.802 476.574C687.781 474.857 684.685 473.714 684.583 470.082C684.424 464.408 685.005 458.497 680.376 453.872C679.886 453.382 680.259 451.411 680.851 450.555C685.605 443.677 683.209 435.461 685.152 428.064C685.552 426.54 685.315 424.437 684.534 423.084C680.545 416.168 682.926 406.852 675.871 401.027C673.166 398.794 673.36 394.741 674.74 392.147C677.078 387.75 677.704 382.987 679.229 378.438C682.82 367.723 686.554 357.056 690.03 346.305C690.898 343.621 692.758 342.607 695.001 341.497C704.571 336.759 707.241 329.994 703.696 319.942C701.261 313.037 704.286 301.704 709.839 296.933C716.719 291.021 714.289 276.279 705.829 272.597C705.606 272.5 705.3 272.237 705.183 272.306C693.467 279.227 692.844 265.58 686.687 262.219C685.026 261.312 684.48 259.06 684.671 257.003C685.537 247.648 681.145 240.333 675.486 233.566C674.39 232.255 673.762 230.729 674.891 229.761C677.094 227.873 678.295 224.861 682.415 225.119C690.91 225.65 699.458 225.279 708.284 225.279ZM691.6 118.824C688.102 112.73 681.57 111.362 676.036 108.442C679.917 114.024 685.376 117.077 691.783 118.6C698.032 123.85 701.16 131.822 708.015 136.692C711.315 139.036 709.727 144.045 708.239 146.246C705.911 149.689 703.491 144.95 700.941 144.268C699.207 143.804 698.813 141.107 696.211 141.113C696.49 145.908 699.112 148.968 703.254 150.326C711.738 153.106 718.236 149.316 724.659 142.423C714.154 140.128 714.35 127.847 705.643 123.592C703.696 122.64 703.844 119.825 705.917 117.986C706.592 117.387 707.456 116.508 706.095 115.762C705.521 115.447 704.149 115.355 704.082 115.527C701.414 122.405 695.687 117.583 691.6 118.824ZM842.158 297.133C840.522 293.69 838.759 290.3 837.286 286.788C835.884 283.446 837.475 280.408 839.474 278.048C841.13 276.093 843.407 277.776 845.474 278.473C852.828 280.954 859.845 288.963 868.023 278.851C869.548 276.966 871.838 276.741 870.378 273.727C866.048 264.789 861.679 255.877 856.075 247.637C854.859 245.85 854.514 245.616 851.943 246.955C845.118 250.51 838.241 249.16 832.928 243.132C827.751 237.259 822.737 231.241 817.743 225.211C816.718 223.973 815.584 222.931 814.128 223.621C812.541 224.374 814.939 225.618 814.209 226.605C812.608 228.771 814.455 229.757 815.371 231.406C817.569 235.359 822.586 235.744 824.778 239.516C825.788 241.254 826.833 244.315 824.095 243.6C819.78 242.472 814.793 244.464 810.894 239.821C807.785 236.119 803.595 231.197 796.822 235.619C801.644 237.716 802.114 242.178 802.795 246.437C803.034 247.933 803.623 250.18 801.316 250.605C799.264 250.983 798.487 249.186 798.057 247.444C796.62 241.625 792.715 238.21 787.562 235.402C775.984 229.091 763.093 224.986 753.621 215.018C751.322 212.599 749.097 214.056 748.162 217.347C746.669 222.598 743.498 224.869 737.926 222.686C736.709 222.209 734.89 221.841 734.043 223.528C733.272 225.064 734.336 226.465 735.362 227.303C740.303 231.343 737.738 234.997 734.673 238.242C730.041 243.146 730.388 247.938 734.285 252.863C735.522 254.425 736.167 255.636 735.921 257.949C734.735 269.063 733.305 270.988 722.353 273.868C721.884 273.991 721.405 274.078 720.939 274.212C719.24 274.702 717.389 275.515 717.388 277.342C717.387 278.459 718.742 279.771 719.776 280.659C722.583 283.07 736.061 281.738 738.248 278.806C744.942 269.831 753.662 265.329 764.947 263.991C769.178 263.489 774.173 262.099 778.264 259.949C784.865 256.479 787.782 257.887 791.113 264.262C793.835 269.471 798.662 273.565 797.111 280.332C797.021 280.724 797.91 281.679 798.487 281.831C803.229 283.08 806.912 287.697 812.661 285.913C815.829 284.93 820.3 286.167 821.463 288.019C826.253 295.645 835.082 293.986 842.158 297.133ZM832.587 207.515C828.837 198.969 821.41 195.136 814.577 190.696C813.881 190.244 812.093 190.083 812.036 190.24C808.755 199.116 806.491 189.742 803.74 189.731C801.483 189.723 801.358 185.843 798.429 185.715C798.419 190.048 801.543 192.347 803.272 194.848C807.338 200.73 809.599 207.902 815.414 212.583C816.771 213.675 818.083 214.884 819.891 214.525C822.71 213.965 820.922 211.908 821.008 210.461C821.257 206.294 823.095 204.782 827.195 206.555C828.661 207.19 830.105 208.344 832.587 207.515ZM759.586 207.109C772.108 214.906 782.594 224.099 796.696 227.825C794.082 221.46 767.419 206.189 759.586 207.109Z" fill="#60B0F0"/>
    <path d="M453.931 50C458.656 51.24 463.343 50.56 467.973 53.123C471.43 55.037 476.44 54.072 480.731 53.198C490.972 51.111 501.124 49.205 511.329 53.848C513.536 54.852 516.592 53.887 519.244 54.038C522.765 54.239 525.875 54.863 523.492 59.689C522.699 61.296 522.588 63.59 524.709 63.866C530.364 64.604 531.883 69.802 535.377 72.844C537.268 74.49 538.077 76.297 537.518 78.552C536.787 81.5 537.383 83.372 540.144 85.175C545.253 88.512 543.194 91.858 539.485 94.958C535.008 98.7 529.427 99.447 524.084 100.861C523.385 101.046 522.526 100.879 521.946 101.222C513.542 106.186 506.085 113.147 495.564 113.604C494.844 120.505 488.748 124.639 486.73 130.952C483.559 140.873 481.489 141.489 472.53 136.178C471.717 135.696 470.787 135.168 469.886 135.118C456.565 134.37 453.877 124.157 450.374 114.097C448.355 108.297 446.431 103.27 452.202 98.705C452.967 98.1 453.526 97.124 452.558 96.289C447.663 92.063 451.768 87.296 452.964 83.871C455.689 76.07 453.748 72.368 445.138 71.678C441.397 71.378 434.619 75.525 434.966 66.12C435.026 64.504 430.161 65.607 428.324 66.717C422.751 70.083 417.044 70.125 411.02 68.862C408.897 68.417 406.178 68.483 405.967 65.746C405.775 63.25 409.015 63.759 410.018 62.651C414.777 57.393 420.42 54.209 427.429 53.339C436.299 52.238 445.164 51.106 453.931 50Z" fill="#60B0F0"/>
    <path d="M243.426 406.362C239.606 405.995 236.415 405.996 233.382 405.305C230.689 404.692 222.516 408.145 228.515 399.726C228.705 399.459 228.718 398.695 228.56 398.605C222.014 394.853 218.603 387.287 210.942 384.71C204.977 382.703 199.629 377.025 193.016 383.257C192.184 384.041 190.612 383.999 189.64 383.081C188.49 381.995 189.627 380.969 189.971 379.879C191.361 375.473 195.174 374.53 198.902 373.402C211.428 369.612 220.432 376.73 228.299 384.312C233.671 389.489 240.312 392.64 245.606 397.738C247.504 399.565 250.712 400.86 250.163 403.601C249.381 407.506 244.931 404.569 243.426 406.362Z" fill="#60B0F0"/>
    <path d="M256.318 417.33C256.106 414.678 256.282 412.925 255.763 411.411C255.152 409.631 251.535 408.631 253.549 406.305C255.195 404.404 258.237 404.794 260.333 406.05C263.4 407.888 266.48 406.33 269.53 406.73C277.218 407.737 280.925 414.746 287.064 418.071C288.4 418.794 288.5 420.674 287.354 421.902C286.122 423.222 285.071 424.827 282.541 423.861C276.663 421.618 270.801 420.52 266.113 426.485C265.227 427.612 263.463 427.582 263.059 426.441C260.81 420.082 255.133 422.483 250.897 421.718C248.435 421.274 246.103 421.115 244.536 419.086C243.778 418.105 244.082 416.71 244.894 415.712C247.128 412.968 249.284 415.819 251.476 415.946C252.857 416.026 254.205 416.699 256.318 417.33Z" fill="#60B0F0"/>
    <path d="M566.375 119.864C559.736 120.611 554.29 114.75 548.321 110.082C547.586 109.507 547.188 107.842 547.402 106.847C547.892 104.568 550.328 104.92 551.595 105.197C557.716 106.535 563.335 105.009 569.21 103.529C574.051 102.309 578.426 105.304 582.157 108.222C584.12 109.757 583.591 112.804 581.838 114.011C577.788 116.799 573.927 120.441 566.375 119.864Z" fill="#60B0F0"/>
    <path d="M579.737 62.303C579.328 64.759 577.647 64.567 576.323 64.256C570.218 62.825 564.131 61.3 558.082 59.648C556.795 59.296 555.163 58.774 554.987 57.02C554.779 54.941 556.531 54.073 557.906 53.25C560.635 51.616 563.726 52.045 566.289 53.314C570.372 55.337 574.169 57.947 578.03 60.399C578.781 60.876 579.269 61.765 579.737 62.303Z" fill="#60B0F0"/>
    <path d="M228.318 421.905C223.113 422.904 220.276 419.599 218.817 415.988C218.094 414.2 221.38 412.917 223.675 413.112C228.065 413.485 232.927 414.589 233.881 419.204C234.78 423.549 230.051 420.925 228.318 421.905Z" fill="#60B0F0"/>
    <path d="M300.043 427.746C297.502 427.023 293.456 428.907 293.388 424.213C293.346 421.334 295.276 419.61 298.249 420.6C301.21 421.586 306.238 419.851 306.64 424.305C306.984 428.119 302.871 427.734 300.043 427.746Z" fill="#60B0F0"/>
    <path fill-rule="evenodd" clip-rule="evenodd" d="M144.643 149.939C56.4069 237.667 0 357.751 0 493.417C0 893.925 447.5 1157.71 804 893.925C347 1093.26 66.801 802.661 66.801 493.417C66.801 364.595 109.177 256.667 181.791 176.132C192.918 184.061 204.432 192.335 216.287 200.924C66.5555 365.578 36.7359 680.418 294.121 867.048C73.5587 668.434 97.6057 372.057 227.507 209.075C492.969 402.39 916.232 744.221 1000 920.132C928.238 685.787 514.728 365.798 241.963 191.978C255.805 176.553 270.672 162.566 286.421 150.256C434.652 245.502 603.314 365.879 651.041 436.35C610.578 361.335 444.605 238.8 294.69 144.007C324.475 122.254 357.215 106.414 392 98C354.995 104.988 320.057 119.451 288.107 139.856C274.863 131.527 261.763 123.426 248.903 115.603C348.259 42.7608 481.526 6.75912 631.5 16.8117C482.182 -23.3397 329.712 10.8574 212.003 93.5279C136.941 49.4019 74.4531 17.584 46.9702 9.99999C68.1982 18.5417 128.956 52.5306 204.552 98.8596C187.51 111.283 171.233 124.736 155.841 139.138C95.8026 103.885 48.5051 79.8831 22 71C42.4125 81.0485 86.2435 109.227 144.643 149.939ZM279.294 145.686C266.343 137.398 253.567 129.313 241.062 121.482C224.597 134.107 209.111 147.774 194.686 162.44C206.559 169.703 218.801 177.316 231.365 185.253C246.352 170.54 262.376 157.271 279.294 145.686Z" fill="#FFFFFF"/>
</svg>
