<svg width="100" height="100" viewBox="0 0 100 100" fill="none" xmlns="http://www.w3.org/2000/svg">
    <path d="M37.2754 8.09275C37.7433 7.80015 38.1865 7.48505 38.7225 7.28965C39.646 6.95295 40.3568 7.31935 41.0402 7.84165C41.2979 8.03855 41.5116 8.29735 41.728 8.54315C41.9484 8.79345 42.1725 9.05445 41.6331 9.22225C41.3216 9.31915 41.4043 9.47975 41.6201 9.61395C41.6798 9.65105 41.781 9.63985 41.8213 9.68665C42.0604 9.96485 42.6862 10.0391 42.6145 10.3568C42.5097 10.8218 41.8678 10.8651 41.4805 11.1281C41.2746 11.2679 41.1002 11.0166 40.9904 10.8142C40.929 10.7011 40.8971 10.4941 40.6955 10.6352C40.596 10.7048 40.5966 10.8126 40.6445 10.9516C40.9135 11.7324 40.6582 11.506 40.0785 12.1309C39.2236 13.0524 38.5869 12.1938 38.4461 11.9266C38.0661 11.2058 37.5866 11.1194 36.9075 11.1423C36.5929 11.1529 36.6843 10.9117 36.8234 10.7372C36.9885 10.5301 37.3084 10.388 37.4578 10.4493C38.091 10.7089 38.4945 10.2457 38.9793 10.0549C39.2133 9.96285 39.5769 9.90775 39.5406 9.58145C39.5124 9.32825 39.3314 8.92255 39.1629 8.89215C38.8677 8.83895 38.4817 8.64305 38.1991 8.94085C37.516 9.66075 36.826 10.3423 35.6977 10.0783C35.6622 10.07 35.6123 10.1171 35.5707 10.1412C34.3991 10.8217 33.0645 11.0696 31.8168 11.5485C31.2429 11.7688 30.7574 12.1287 30.2247 12.4068C29.7313 12.6643 29.9019 13.2303 29.5549 13.5301C29.4893 13.5868 29.6179 13.6801 29.693 13.7423C29.9526 13.9578 30.1434 14.1933 30.2245 14.5581C30.2782 14.7997 30.5002 15.0398 30.8488 15.0849C31.3522 15.15 31.6547 15.3281 31.1195 15.827C30.9134 16.0191 30.7615 16.2875 30.6398 16.547C30.5123 16.8189 30.4859 17.178 30.7597 17.336C31.0218 17.4872 31.2654 17.2194 31.409 17.0063C31.5828 16.7483 31.7485 16.4577 31.8121 16.1587C31.9168 15.6664 32.2314 15.5277 32.6646 15.4263C33.2081 15.2991 33.9437 15.1243 33.992 14.5629C34.0657 13.7058 34.6438 13.3154 35.0682 12.7296C35.8218 11.6894 36.1525 11.4897 37.3269 11.8753C37.688 11.9939 37.591 12.4342 37.8918 12.5802C38.369 12.8119 38.0591 13.0956 37.9286 13.356C37.8375 13.5377 37.8252 13.6597 37.9616 13.8569C38.1349 14.1075 38.2696 13.9759 38.4508 13.9353C38.8311 13.8501 39.0733 13.5887 39.331 13.3291C39.632 13.026 39.92 13.0246 39.9596 13.5114C40.0096 14.1265 40.5017 14.6748 40.1629 15.3666C40.0571 15.5827 40.4653 15.884 40.6825 15.9214C41.3655 16.0388 41.5111 16.7385 42.0204 17.0388C42.2824 17.1933 42.1196 17.6763 42.0294 17.7673C41.7298 18.0698 41.8251 18.4875 41.6067 18.8123C41.4601 19.0303 41.4124 19.4822 41.9671 19.4565C42.3031 19.4409 42.511 19.4257 42.7102 19.8848C42.9516 20.4409 42.5011 20.4956 42.3396 20.659C42.0623 20.9397 41.6553 21.0972 41.2909 21.2833C41.1984 21.3305 40.9645 21.3127 40.9587 21.2874C40.7715 20.4712 40.0968 20.9052 39.6503 20.773C39.4824 20.7233 39.2381 20.8638 39.1673 20.5901C39.1153 20.3891 39.2968 20.3158 39.4085 20.1901C39.8984 19.6389 40.363 19.0652 40.9124 18.4094C40.6894 18.4664 40.5527 18.4634 40.4687 18.5286C39.4091 19.3508 38.2175 19.0431 37.0503 18.94C36.6263 18.9026 36.1992 18.8374 35.7582 19.2618C36.0168 19.2754 36.1525 19.2911 36.2877 19.288C36.5933 19.281 36.9291 19.316 37.041 19.6132C37.151 19.9054 36.797 20.0086 36.6518 20.2004C36.4425 20.4769 36.0306 20.8214 36.4239 21.246C36.763 21.6121 37.1659 21.7993 37.6406 21.4533C37.7773 21.3537 37.9083 21.2461 38.0414 21.1415C38.1988 21.0178 38.3481 20.7392 38.5663 20.9907C38.7302 21.1796 38.5905 21.4463 38.4511 21.585C38.0034 22.0306 37.5084 22.412 36.8511 22.5243C36.4541 22.5921 36.0551 22.6531 35.7016 22.9C35.4275 23.0915 35.1274 23.4561 34.7502 23.1074C34.3912 22.7755 34.8813 22.5364 34.9499 22.2104C34.2045 22.4505 33.5037 22.6607 32.8144 22.9035C32.3196 23.0777 32.0013 23.419 32.0344 23.9821C32.0492 24.2338 32.0387 24.3708 31.7109 24.3968C31.2723 24.4315 30.8451 24.6772 30.4517 24.7683C29.5096 24.9863 29.1608 25.7458 28.5925 26.3117C28.4893 26.4145 28.3977 26.6012 28.287 26.6123C27.5891 26.6822 27.6095 27.2111 27.5478 27.6974C27.4605 28.3848 26.9957 28.7116 26.404 28.9649C25.4127 29.3892 24.5087 29.9868 23.6494 30.622C23.0425 31.0706 22.8682 31.8192 22.8525 32.5715C22.8408 33.1287 22.8306 33.686 22.8357 34.2432C22.8399 34.7021 22.6524 35.091 22.4189 35.4619C22.2824 35.6787 22.1833 35.9687 21.8331 35.9154C21.4968 35.8642 21.5618 35.5683 21.4915 35.3517C21.2422 34.5835 21.1461 33.8287 21.4422 33.0335C21.6619 32.4435 21.372 32.1112 20.7445 32.1143C20.646 32.1148 20.5262 32.122 20.5039 32.0098C20.3321 31.1459 19.5485 31.5619 19.0766 31.329C18.7343 31.16 18.8149 31.5726 18.6722 31.6867C18.5116 31.815 18.7234 32.2838 18.4257 32.1505C18.1028 32.0059 17.7004 32.2022 17.4396 31.8397C17.1876 31.4894 16.7386 31.2552 16.3726 31.4408C15.4803 31.8934 14.4876 32.1969 14.1739 33.4231C13.9233 34.4027 13.3163 35.2827 12.9729 36.2587C12.6262 37.2439 12.8078 38.2276 12.8897 39.2063C12.9126 39.4795 13.2155 39.9284 13.4991 39.8961C14.0788 39.8301 14.793 40.0125 15.1808 39.3402C15.2762 39.1748 15.3386 38.989 15.4042 38.8082C15.6756 38.06 16.9109 37.6016 17.6009 38.0057C17.8702 38.1635 17.8398 38.4554 17.7113 38.6412C16.9011 39.8126 16.468 41.1607 15.8878 42.4441C16.3255 42.5258 16.7457 42.6396 17.2181 42.6337C18.0789 42.6229 18.9899 43.3829 18.4961 44.6595C18.036 45.8488 17.4815 47.1362 18.5581 48.4038C18.8934 48.7986 19.1077 48.9054 19.5468 48.7307C20.5446 48.3339 20.8569 48.4166 21.5115 49.2086C21.8027 49.561 22.4988 49.3241 22.6158 48.6728C22.8053 47.6181 23.4996 47.5092 24.3275 47.4454C24.7252 47.4148 25.0211 47.1447 25.3244 46.8977C25.5456 46.7176 25.8421 46.5182 26.0901 46.8375C26.3509 47.1731 26.096 47.3587 25.81 47.5012C25.7027 47.5546 25.574 47.6075 25.6339 47.7635C25.6927 47.9168 25.8403 47.8912 25.941 47.8453C26.2127 47.7214 26.6146 47.7866 26.6062 47.2629C26.6024 47.0242 26.9093 46.8338 27.0774 47.2054C27.3247 47.752 28.1762 47.7234 28.232 48.4488C28.2341 48.4761 28.5445 48.4991 28.7095 48.4907C29.153 48.4681 29.5588 48.4782 29.9107 48.8419C30.3633 49.3096 30.8121 48.78 31.2566 48.7292C31.741 48.6738 32.1973 48.3323 32.3976 49.1133C32.4348 49.2584 32.7472 49.3431 32.9422 49.4353C33.2898 49.5996 33.6831 49.7048 33.6622 50.2158C33.6532 50.4362 33.855 50.4404 34.0071 50.5145C34.62 50.8132 35.1732 51.1535 35.4335 51.8672C35.6412 52.4366 36.7702 52.9673 37.4193 52.9055C39.0117 52.754 40.1296 53.6404 41.1824 54.6458C41.3025 54.7605 41.308 55.0011 41.3538 55.1864C41.4843 55.7146 41.5231 56.2543 42.1021 56.5851C42.4706 56.7956 42.331 57.202 42.0597 57.4508C41.876 57.6193 41.715 57.776 41.6426 58.0061C42.1166 58.2628 42.6756 57.9727 43.1076 58.192C43.9903 58.6401 44.9996 58.6726 45.8761 59.1361C46.3046 59.3627 46.7645 59.4931 46.885 60.0418C46.9024 60.121 46.9276 60.301 47.0379 60.2066C47.6205 59.7077 48.137 60.2825 48.6867 60.2881C50.1185 60.3026 51.4325 60.629 52.4559 61.7543C52.743 62.07 53.1829 62.2072 53.6583 62.155C54.1302 62.1032 54.3535 62.3437 54.5408 62.8105C55.1945 64.4393 54.5548 65.6465 53.3663 66.6659C52.9868 66.9914 52.6911 67.3401 52.4328 67.7558C52.2218 68.0954 51.9994 68.4117 51.6249 68.6545C51.1505 68.962 51.2976 69.5682 51.3081 70.0552C51.3268 70.921 50.9974 71.7033 50.8393 72.5136C50.6428 73.5206 49.9516 74.1755 49.5979 75.0452C49.3065 75.7618 48.4526 75.9171 47.6365 75.9803C46.3329 76.0812 45.1712 76.6187 44.1876 77.4952C43.8719 77.7766 43.9667 78.167 44.0078 78.5232C44.0694 79.0563 44.0477 79.5335 43.4734 79.8063C43.2135 79.9297 43.1805 80.2336 43.0397 80.452C42.9159 80.6441 42.8969 81.109 42.3987 80.7607C42.2523 80.6584 41.9113 81.1092 41.8069 81.3944C41.1919 83.0749 40.5099 83.4556 38.7384 83.0584C38.8072 83.3366 38.7407 83.6148 39.1261 83.8037C39.518 83.9957 39.1032 84.8525 38.5046 85.0363C37.9673 85.2013 37.4063 85.2335 36.846 85.2228C36.6142 85.2184 36.3335 85.2242 36.4212 85.5266C36.7081 86.5159 35.998 86.1834 35.5606 86.2011C35.4292 86.2064 35.2951 86.1456 35.0644 86.0926C35.3879 86.5094 35.689 86.7817 35.6128 87.3301C35.5576 87.7275 35.572 87.9438 35.1248 87.9895C34.818 88.0208 34.8319 88.1902 35.0531 88.3605C35.0906 88.3894 35.1497 88.393 35.1823 88.4251C35.4614 88.6996 36.1374 88.4459 36.1285 89.0235C36.1234 89.3556 35.7316 89.6263 35.6617 90.0053C35.6533 90.0509 35.4644 90.124 35.5835 90.1878C36.2918 90.5667 35.6471 90.7794 35.5073 91.0777C35.3877 91.3329 35.24 91.328 35.0476 91.2319C34.2932 90.8549 33.5593 90.4516 32.8883 89.9264C32.4004 89.5445 31.8104 89.2848 31.718 88.5689C31.703 88.453 31.645 88.3339 31.5038 88.3019C30.8967 88.1643 30.8149 87.9405 31.33 87.523C31.5242 87.3656 30.914 86.0329 30.6172 85.9905C30.1458 85.9231 29.8962 85.6126 29.8726 85.2222C29.844 84.7495 29.6756 84.353 29.3611 84.0722C28.8292 83.5973 29.1927 83.0647 29.2 82.5756C29.2128 81.7197 29.1505 80.9094 28.7282 80.1391C28.4405 79.6143 28.4091 78.9968 28.3731 78.422C28.3174 77.5312 28.3202 76.6339 28.0571 75.7775C27.7873 74.8996 27.8911 73.9876 27.7264 73.0915C27.4673 71.6816 26.6372 70.8581 25.5281 70.1675C24.9937 69.8347 24.4287 69.54 23.9368 69.1529C23.3752 68.7109 22.8176 68.265 22.6983 67.4412C22.6408 67.0447 22.2872 66.6858 22.0496 66.3217C21.2289 65.0645 20.7339 63.6365 19.9636 62.3521C19.8383 62.1431 19.7525 61.8791 19.5509 61.767C18.8204 61.3611 18.9156 60.5946 18.7428 59.9615C18.6247 59.5289 19.0226 59.2722 19.3113 59.0188C19.4794 58.8713 19.6038 58.7947 19.3219 58.6079C18.6935 58.1915 18.8532 57.5649 18.9995 56.9897C19.0978 56.6034 19.4066 56.2767 19.3449 55.8374C19.3416 55.814 19.341 55.7728 19.3524 55.7673C19.9634 55.4731 20.076 54.6126 20.5152 54.3938C21.3971 53.9545 21.1173 53.25 21.2051 52.6491C21.3155 51.8936 21.3322 51.1118 20.8616 50.4188C20.7608 50.2704 20.6983 50.0838 20.7518 49.8697C20.8489 49.4805 20.5639 49.2079 20.2783 49.2572C20.1033 49.2874 19.586 49.5025 19.8422 49.9781C19.9643 50.2048 19.9144 50.337 19.6556 50.3941C19.4413 50.4414 19.2313 50.6679 19.0413 50.3259C18.788 49.8698 18.5032 49.4678 17.8932 49.3921C17.7041 49.3686 17.3595 49.1932 17.4493 48.7686C17.5393 48.3434 17.1204 48.2252 16.8424 48.0615C16.4959 47.8575 16.3977 47.6172 16.3765 47.1875C16.3293 46.231 16.0333 45.362 15.1469 44.7664C14.3239 44.2135 13.4389 43.6934 13.1955 42.5739C13.0872 42.0761 12.8401 41.5851 12.1279 42.0076C11.7834 42.2119 11.5172 41.8741 11.331 41.6504C10.4754 40.6241 9.61732 39.5926 9.28772 38.2478C9.19322 37.8621 9.13632 37.4518 9.31642 37.1044C9.97412 35.8362 9.85492 34.4732 9.76612 33.1428C9.71652 32.3995 10.3158 31.7817 9.92502 31.0656C9.83692 31.9917 9.28762 32.856 9.36402 33.8731C9.37992 34.0849 9.32012 34.3077 9.26602 34.5179C9.22082 34.6932 9.08842 34.8291 8.89552 34.7823C8.71842 34.7394 8.77512 34.566 8.75312 34.4235C8.56122 33.1781 8.92872 31.9284 9.22872 30.8188C9.59042 29.4809 9.95372 28.0463 10.7059 26.8173C11.15 26.0916 11.0419 25.2325 11.4391 24.4787C12.5774 22.3178 13.9533 20.3553 15.7202 18.6624C16.7666 17.6598 17.7406 16.5887 18.6874 15.4868C20.3453 13.5575 22.3876 12.0683 24.4791 10.6414C26.6941 9.13035 29.0856 7.97115 31.556 6.95525C32.1255 6.72105 32.5345 6.72505 32.9441 7.32005C33.1988 7.69005 33.676 7.34005 33.8584 7.06985C34.4954 6.12635 35.5615 6.31825 36.435 6.01035C36.5103 5.98375 36.6494 6.03195 36.6506 6.15145C36.6531 6.39105 36.4608 6.52045 36.222 6.74035C36.4543 6.74035 36.6036 6.72435 36.7481 6.74405C36.9732 6.77465 37.0936 6.97905 36.8592 7.05125C35.9658 7.32655 35.2949 7.94975 34.5414 8.52175C34.8597 9.06255 35.3448 8.71885 35.5185 8.42955C35.7923 7.97335 36.2206 7.86975 36.6085 7.65425C37.1215 7.36915 37.3475 7.53885 37.2921 8.11235C37.0006 7.97165 36.9448 8.29265 36.774 8.38565C36.6717 8.44135 36.4605 8.45255 36.6413 8.72705C36.8108 8.98435 36.9205 8.89265 37.0961 8.82845C37.5258 8.67135 37.173 8.32735 37.2754 8.09275ZM24.6387 19.6367C25.1196 19.555 25.5576 19.4485 25.9102 19.9532C25.9936 20.0726 26.5279 20.1421 26.8049 19.886C27.1541 19.5632 26.7717 19.2396 26.6879 18.9914C26.5956 18.7183 26.1499 18.8606 25.9256 19.0169C25.5325 19.2907 24.9999 19.2434 24.6387 19.6367ZM26.6971 22.1692C27.1522 21.9105 27.2664 21.1041 28.0063 21.5266C28.1895 21.0925 27.9462 20.882 27.5819 20.7971C27.3477 20.7425 26.8499 20.5741 26.8914 20.7815C26.9941 21.2942 26.4333 21.6595 26.6971 22.1692Z" fill="#60B0F0"/>
    <path d="M70.8284 22.4204C70.5314 21.0007 69.6356 20.0935 68.4255 19.8675C68.3778 19.8586 68.3288 19.8569 68.281 19.8489C67.9425 19.7922 67.6189 19.5661 67.6412 19.2785C67.6637 18.9887 68.0671 18.9591 68.3575 18.948C68.4471 18.9446 68.538 18.978 68.6562 18.9997C68.3438 18.4091 68.3447 18.3851 68.8944 18.4059C69.1381 18.4151 69.1575 18.2382 69.2649 18.1277C69.4034 17.9852 69.3114 17.8615 69.2216 17.7478C69.0654 17.5501 68.9849 17.8055 68.8656 17.8128C68.2631 17.8498 67.711 18.0764 67.2025 18.3574C66.7127 18.6282 66.6758 18.4358 66.7183 18.0265C66.7432 17.7867 66.826 17.6286 66.4191 17.5207C65.9656 17.4005 65.9797 16.7439 66.0727 16.4187C66.2084 15.9439 65.8174 16.0494 65.6969 15.8813C65.5697 15.7038 65.3779 15.7365 65.2648 15.8793C65.0864 16.1046 65.278 16.2675 65.4098 16.4433C65.593 16.6878 65.8875 16.9915 65.5872 17.2634C65.1929 17.6203 64.6675 18.1551 64.1508 17.6722C63.7501 17.2977 63.3976 16.636 63.4155 16.1155C63.4333 15.5993 63.988 15.178 64.702 15.3417C64.2058 15.0611 63.855 14.6737 63.583 14.2253C63.4659 14.0323 63.3511 13.7449 63.6498 13.5976C63.8698 13.4891 64.1855 13.3086 64.3401 13.6643C64.4479 13.9123 64.5965 13.9036 64.7921 13.8907C64.9717 13.8788 65.1295 13.9192 65.2273 14.0902C65.927 15.3135 67.2128 15.7178 68.3579 16.3116C68.621 16.4481 68.7962 16.6007 68.8262 16.897C68.8582 17.2133 69.0666 17.3986 69.3452 17.3253C69.6649 17.2412 69.6658 16.9901 69.5041 16.7049C69.3477 16.4291 69.2518 16.0149 69.5321 15.8584C70.1991 15.4859 69.8183 15.2928 69.4824 15.0226C68.9469 14.5919 68.1252 14.3175 68.5258 13.3312C68.5498 13.2722 68.2249 13.0714 68.0533 12.9292C67.8087 13.6208 67.3816 13.758 66.7643 13.3162C66.2038 12.9151 65.6738 12.4697 65.1472 12.024C64.9776 11.8805 64.7323 11.7396 64.8832 11.4248C65.1214 10.9279 64.8509 10.461 64.5715 10.1636C64.107 9.66915 63.7599 9.05625 63.2191 8.65525C62.7707 8.32285 62.8497 7.89805 62.9986 7.57975C63.144 7.26885 63.54 7.34395 63.9047 7.42975C64.4869 7.56675 65.0994 7.57755 65.7 7.63185C65.7676 7.63795 65.8989 7.68475 65.8848 7.51055C65.8213 6.72475 66.3105 7.11825 66.5733 7.22715C70.9308 9.03135 74.9476 11.4192 78.4899 14.531C82.3882 17.9556 85.8116 21.805 88.4456 26.3139C90.7681 30.2896 92.5564 34.4867 93.5645 38.9806C94.3915 42.6669 95.0535 46.3911 94.8369 50.1993C94.7462 51.7942 94.572 53.3853 94.4053 54.9749C94.0946 57.9381 93.6913 60.8934 92.6573 63.7032C91.3055 67.3763 89.746 70.9555 87.6339 74.2771C86.7672 75.6401 85.7714 76.866 84.5151 77.8673C83.9145 78.346 83.2449 78.7403 82.5943 79.1534C82.2968 79.3423 82.1196 79.2014 82.1479 78.8732C82.1661 78.662 82.22 78.4187 82.3451 78.2576C83.1028 77.2822 83.3007 76.1415 83.4728 74.9585C83.5825 74.2044 83.8442 73.4455 84.1791 72.7576C84.6721 71.7447 84.6897 70.6803 84.6034 69.6327C84.5328 68.7751 84.6468 67.9575 84.9694 67.2266C85.3948 66.2628 85.5919 65.1892 86.271 64.3384C86.3748 64.2084 86.4935 64.0489 86.507 63.8944C86.6872 61.8288 86.9949 59.7483 86.0503 57.7697C85.8956 57.4456 85.6686 57.1545 85.4623 56.8569C84.9226 56.0784 85.381 55.2781 85.4144 54.4908C85.4375 53.9468 85.5706 53.4084 85.6149 52.8642C85.6965 51.8604 85.1692 51.4464 84.2758 51.84C83.744 52.0743 83.477 51.9413 83.2741 51.4206C82.8777 50.4034 81.8745 50.2843 81.0247 51.0573C80.4834 51.5497 79.8429 51.9348 79.2347 52.3502C79.1581 52.4025 79.0032 52.3639 78.8917 52.3375C77.9371 52.1114 77.0717 52.3305 76.2522 52.8331C75.4907 53.3002 74.9778 53.2781 74.2843 52.6593C73.6146 52.0619 72.8919 51.5585 72.1145 51.1158C71.8048 50.9394 71.4951 50.6606 71.4093 50.3168C71.0714 48.9627 69.9266 48.3539 68.9802 47.5499C68.7781 47.3782 68.4685 47.2639 68.4583 46.9007C68.4424 46.3333 68.5005 45.7422 68.0376 45.2797C67.9886 45.2307 68.0259 45.0336 68.0851 44.948C68.5605 44.2602 68.3209 43.4386 68.5152 42.6989C68.5552 42.5465 68.5315 42.3362 68.4534 42.2009C68.0545 41.5093 68.2926 40.5777 67.5871 39.9952C67.3166 39.7719 67.336 39.3666 67.474 39.1072C67.7078 38.6675 67.7704 38.1912 67.9229 37.7363C68.282 36.6648 68.6554 35.5981 69.003 34.523C69.0898 34.2546 69.2758 34.1532 69.5001 34.0422C70.4571 33.5684 70.7241 32.8919 70.3696 31.8867C70.1261 31.1962 70.4286 30.0629 70.9839 29.5858C71.6719 28.9946 71.4289 27.5204 70.5829 27.1522C70.5606 27.1425 70.53 27.1162 70.5183 27.1231C69.3467 27.8152 69.2844 26.4505 68.6687 26.1144C68.5026 26.0237 68.448 25.7985 68.4671 25.5928C68.5537 24.6573 68.1145 23.9258 67.5486 23.2491C67.439 23.118 67.3762 22.9654 67.4891 22.8686C67.7094 22.6798 67.8295 22.3786 68.2415 22.4044C69.091 22.4575 69.9458 22.4204 70.8284 22.4204ZM69.16 11.7749C68.8102 11.1655 68.157 11.0287 67.6036 10.7367C67.9917 11.2949 68.5376 11.6002 69.1783 11.7525C69.8032 12.2775 70.116 13.0747 70.8015 13.5617C71.1315 13.7961 70.9727 14.297 70.8239 14.5171C70.5911 14.8614 70.3491 14.3875 70.0941 14.3193C69.9207 14.2729 69.8813 14.0032 69.6211 14.0038C69.649 14.4833 69.9112 14.7893 70.3254 14.9251C71.1738 15.2031 71.8236 14.8241 72.4659 14.1348C71.4154 13.9053 71.435 12.6772 70.5643 12.2517C70.3696 12.1565 70.3844 11.875 70.5917 11.6911C70.6592 11.6312 70.7456 11.5433 70.6095 11.4687C70.5521 11.4372 70.4149 11.428 70.4082 11.4452C70.1414 12.133 69.5687 11.6508 69.16 11.7749ZM84.2158 29.6058C84.0522 29.2615 83.8759 28.9225 83.7286 28.5713C83.5884 28.2371 83.7475 27.9333 83.9474 27.6973C84.113 27.5018 84.3407 27.6701 84.5474 27.7398C85.2828 27.9879 85.9845 28.7888 86.8023 27.7776C86.9548 27.5891 87.1838 27.5666 87.0378 27.2652C86.6048 26.3714 86.1679 25.4802 85.6075 24.6562C85.4859 24.4775 85.4514 24.4541 85.1943 24.588C84.5118 24.9435 83.8241 24.8085 83.2928 24.2057C82.7751 23.6184 82.2737 23.0166 81.7743 22.4136C81.6718 22.2898 81.5584 22.1856 81.4128 22.2546C81.2541 22.3299 81.4939 22.4543 81.4209 22.553C81.2608 22.7696 81.4455 22.8682 81.5371 23.0331C81.7569 23.4284 82.2586 23.4669 82.4778 23.8441C82.5788 24.0179 82.6833 24.324 82.4095 24.2525C81.978 24.1397 81.4793 24.3389 81.0894 23.8746C80.7785 23.5044 80.3595 23.0122 79.6822 23.4544C80.1644 23.6641 80.2114 24.1103 80.2795 24.5362C80.3034 24.6858 80.3623 24.9105 80.1316 24.953C79.9264 24.9908 79.8487 24.8111 79.8057 24.6369C79.662 24.055 79.2715 23.7135 78.7562 23.4327C77.5984 22.8016 76.3093 22.3911 75.3621 21.3943C75.1322 21.1524 74.9097 21.2981 74.8162 21.6272C74.6669 22.1523 74.3498 22.3794 73.7926 22.1611C73.6709 22.1134 73.489 22.0766 73.4043 22.2453C73.3272 22.3989 73.4336 22.539 73.5362 22.6228C74.0303 23.0268 73.7738 23.3922 73.4673 23.7167C73.0041 24.2071 73.0388 24.6863 73.4285 25.1788C73.5522 25.335 73.6167 25.4561 73.5921 25.6874C73.4735 26.7988 73.3305 26.9913 72.2353 27.2793C72.1884 27.2916 72.1405 27.3003 72.0939 27.3137C71.924 27.3627 71.7389 27.444 71.7388 27.6267C71.7387 27.7384 71.8742 27.8696 71.9776 27.9584C72.2583 28.1995 73.6061 28.0663 73.8248 27.7731C74.4942 26.8756 75.3662 26.4254 76.4947 26.2916C76.9178 26.2414 77.4173 26.1024 77.8264 25.8874C78.4865 25.5404 78.7782 25.6812 79.1113 26.3187C79.3835 26.8396 79.8662 27.249 79.7111 27.9257C79.7021 27.9649 79.791 28.0604 79.8487 28.0756C80.3229 28.2005 80.6912 28.6622 81.2661 28.4838C81.5829 28.3855 82.03 28.5092 82.1463 28.6944C82.6253 29.457 83.5082 29.2911 84.2158 29.6058ZM83.2587 20.644C82.8837 19.7894 82.141 19.4061 81.4577 18.9621C81.3881 18.9169 81.2093 18.9008 81.2036 18.9165C80.8755 19.8041 80.6491 18.8667 80.374 18.8656C80.1483 18.8648 80.1358 18.4768 79.8429 18.464C79.8419 18.8973 80.1543 19.1272 80.3272 19.3773C80.7338 19.9655 80.9599 20.6827 81.5414 21.1508C81.6771 21.26 81.8083 21.3809 81.9891 21.345C82.271 21.289 82.0922 21.0833 82.1008 20.9386C82.1257 20.5219 82.3095 20.3707 82.7195 20.548C82.8661 20.6115 83.0105 20.7269 83.2587 20.644ZM75.9586 20.6034C77.2108 21.3831 78.2594 22.3024 79.6696 22.675C79.4082 22.0385 76.7419 20.5114 75.9586 20.6034Z" fill="#60B0F0"/>
    <path d="M45.3931 4.89255C45.8656 5.01655 46.3343 4.94855 46.7973 5.20485C47.143 5.39625 47.644 5.29975 48.0731 5.21235C49.0972 5.00365 50.1124 4.81305 51.1329 5.27735C51.3536 5.37775 51.6592 5.28125 51.9244 5.29635C52.2765 5.31645 52.5875 5.37885 52.3492 5.86145C52.2699 6.02215 52.2588 6.25155 52.4709 6.27915C53.0364 6.35295 53.1883 6.87275 53.5377 7.17695C53.7268 7.34155 53.8077 7.52225 53.7518 7.74775C53.6787 8.04255 53.7383 8.22975 54.0144 8.41005C54.5253 8.74375 54.3194 9.07835 53.9485 9.38835C53.5008 9.76255 52.9427 9.83725 52.4084 9.97865C52.3385 9.99715 52.2526 9.98045 52.1946 10.0147C51.3542 10.5111 50.6085 11.2072 49.5564 11.2529C49.4844 11.943 48.8748 12.3564 48.673 12.9877C48.3559 13.9798 48.1489 14.0414 47.253 13.5103C47.1717 13.4621 47.0787 13.4093 46.9886 13.4043C45.6565 13.3295 45.3877 12.3082 45.0374 11.3022C44.8355 10.7222 44.6431 10.2195 45.2202 9.76305C45.2967 9.70255 45.3526 9.60495 45.2558 9.52145C44.7663 9.09885 45.1768 8.62215 45.2964 8.27965C45.5689 7.49955 45.3748 7.12935 44.5138 7.06035C44.1397 7.03035 43.4619 7.44505 43.4966 6.50455C43.5026 6.34295 43.0161 6.45325 42.8324 6.56425C42.2751 6.90085 41.7044 6.90505 41.102 6.77875C40.8897 6.73425 40.6178 6.74085 40.5967 6.46715C40.5775 6.21755 40.9015 6.26845 41.0018 6.15765C41.4777 5.63185 42.042 5.31345 42.7429 5.22645C43.6299 5.11635 44.5164 5.00315 45.3931 4.89255Z" fill="#60B0F0"/>
    <path d="M24.3426 40.5287C23.9606 40.492 23.6415 40.4921 23.3382 40.423C23.0689 40.3617 22.2516 40.7071 22.8515 39.8652C22.8705 39.8385 22.8718 39.762 22.856 39.753C22.2014 39.3778 21.8603 38.6212 21.0942 38.3635C20.4977 38.1628 19.9629 37.595 19.3016 38.2182C19.2184 38.2966 19.0612 38.2924 18.964 38.2006C18.849 38.092 18.9627 37.9894 18.9971 37.8804C19.1361 37.4398 19.5174 37.3455 19.8902 37.2327C21.1428 36.8537 22.0432 37.5655 22.8299 38.3237C23.3671 38.8414 24.0312 39.1565 24.5606 39.6663C24.7504 39.849 25.0712 39.9786 25.0163 40.2527C24.9381 40.6432 24.4931 40.3494 24.3426 40.5287Z" fill="#60B0F0"/>
    <path d="M25.6318 41.6255C25.6106 41.3603 25.6282 41.185 25.5763 41.0336C25.5152 40.8556 25.1535 40.7556 25.3549 40.523C25.5195 40.3329 25.8237 40.3719 26.0333 40.4975C26.34 40.6813 26.648 40.5255 26.953 40.5655C27.7218 40.6662 28.0925 41.3671 28.7064 41.6996C28.84 41.7719 28.85 41.9599 28.7354 42.0827C28.6122 42.2147 28.5071 42.3752 28.2541 42.2786C27.6663 42.0543 27.0801 41.9445 26.6113 42.541C26.5227 42.6537 26.3463 42.6507 26.3059 42.5366C26.081 41.9007 25.5133 42.1408 25.0897 42.0643C24.8435 42.0199 24.6103 42.004 24.4536 41.8011C24.3778 41.703 24.4082 41.5635 24.4894 41.4637C24.7128 41.1893 24.9284 41.4744 25.1476 41.4871C25.2857 41.4951 25.4205 41.5624 25.6318 41.6255Z" fill="#60B0F0"/>
    <path d="M56.6375 11.879C55.9736 11.9537 55.429 11.3676 54.8321 10.9008C54.7586 10.8433 54.7188 10.6768 54.7402 10.5773C54.7892 10.3494 55.0328 10.3846 55.1595 10.4123C55.7716 10.5461 56.3335 10.3935 56.921 10.2455C57.4051 10.1235 57.8426 10.423 58.2157 10.7148C58.412 10.8683 58.3591 11.173 58.1838 11.2937C57.7788 11.5725 57.3927 11.9367 56.6375 11.879Z" fill="#60B0F0"/>
    <path d="M57.9737 6.12285C57.9328 6.36845 57.7647 6.34925 57.6323 6.31815C57.0218 6.17505 56.4131 6.02255 55.8082 5.85735C55.6795 5.82215 55.5163 5.76995 55.4987 5.59455C55.4779 5.38665 55.6531 5.29985 55.7906 5.21755C56.0635 5.05415 56.3726 5.09705 56.6289 5.22395C57.0372 5.42625 57.4169 5.68725 57.803 5.93245C57.8781 5.98015 57.9269 6.06905 57.9737 6.12285Z" fill="#60B0F0"/>
    <path d="M22.8318 42.083C22.3113 42.1829 22.0276 41.8524 21.8817 41.4913C21.8094 41.3125 22.138 41.1842 22.3675 41.2037C22.8065 41.241 23.2927 41.3514 23.3881 41.8129C23.478 42.2474 23.0051 41.985 22.8318 42.083Z" fill="#60B0F0"/>
    <path d="M30.0043 42.6672C29.7502 42.5949 29.3456 42.7833 29.3388 42.3139C29.3346 42.026 29.5276 41.8536 29.8249 41.9526C30.121 42.0512 30.6238 41.8777 30.664 42.3231C30.6984 42.7045 30.2871 42.666 30.0043 42.6672Z" fill="#60B0F0"/>
    <path d="M0 49.2491C0 16.5345 30.7463 -5.45339 62.8358 1.1837C30.9453 -0.982816 6.64687 19.3052 6.64687 49.2491C6.64687 79.1931 34.5274 109.743 80 89.6403C44.2289 115.465 0 89.6403 0 49.2491Z" fill="white"/>
    <path d="M100 92C84.3681 64.2084 15.227 13.7127 2 7C16.2196 11.7608 89.0276 61.4556 100 92Z" fill="white"/>
    <path d="M65.1041 43.5276C55.55 33.0082 12.9 4.36145 4.69702 0.892548C13.6 2.74255 58.1 30.5425 65.1041 43.5276Z" fill="white"/>
    <path d="M39 10C11.4496 15.2084 -4.5592 58.3929 28.5956 87C0.0207386 57.2964 14.1606 16.0153 39 10Z" fill="white"/>
</svg>
